<svg xmlns="http://www.w3.org/2000/svg" viewBox="0 0 2506.66 2506.67">
  <g id="Layer_13" data-name="Layer 13">
    <polygon points="1943.73 1602.59 2043.07 1774.67 1446.95 1774.67 1347.6 1602.59 1347.58 1602.59 1248.24 1430.49 1148.89 1258.41 1049.54 1086.33 1049.52 1086.33 950.18 1258.41 850.83 1430.49 751.48 1602.59 950.2 1602.59 1049.54 1430.49 1148.89 1602.59 1248.24 1774.67 453.42 1774.67 552.77 1602.59 652.12 1430.49 652.13 1430.49 751.48 1258.41 850.83 1086.33 950.18 914.24 1049.54 742.16 1148.89 914.22 1148.89 914.24 1248.24 1086.33 1248.26 1086.33 1347.6 1258.41 1446.95 1430.49 1546.3 1602.59 1745.01 1602.59 1645.66 1430.49 1645.64 1430.49 1546.3 1258.41 1645.64 1086.33 1645.66 1086.33 1745.01 914.24 1546.3 914.24 1446.95 1086.33 1347.6 914.24 1248.24 742.16 2043.07 742.16 1943.73 914.24 1844.38 1086.33 1844.36 1086.33 1745.01 1258.41 1844.36 1430.49 1943.71 1602.59 1943.73 1602.59" style="fill: #fff"/>
  </g>
</svg>
