<svg xmlns="http://www.w3.org/2000/svg" viewBox="0 0 2112 1568">
  <g id="Layer_9" data-name="Layer 9">
    <g>
      <polygon points="609.04 869.73 636.43 917.16 472.11 917.16 444.73 869.73 444.72 869.73 417.34 822.29 389.96 774.86 362.57 727.43 362.57 727.43 335.18 774.86 307.8 822.29 280.41 869.73 335.19 869.73 362.57 822.29 389.96 869.73 417.34 917.16 198.26 917.16 225.64 869.73 253.03 822.29 253.03 822.29 280.41 774.86 307.8 727.43 335.18 679.99 362.57 632.56 389.96 679.99 389.96 679.99 417.34 727.43 417.35 727.43 444.73 774.86 472.11 822.29 499.5 869.73 554.27 869.73 526.89 822.29 526.88 822.29 499.5 774.86 526.88 727.43 526.89 727.43 554.27 679.99 499.5 679.99 472.11 727.43 444.73 679.99 417.34 632.56 636.43 632.56 609.04 679.99 581.66 727.43 581.65 727.43 554.27 774.86 581.65 822.29 609.04 869.73 609.04 869.73" style="fill: #38003c"/>
      <path d="M641.84,777.39c0-46.93,38.26-84.83,85.19-84.83a81.91,81.91,0,0,1,42.59,11.55l11.92-7.94h30.32V859H769.62V851a85,85,0,0,1-127.78-73.63Zm127.78,0A42.68,42.68,0,0,0,727,734.79c-23.46,0-42.95,19.14-42.95,42.6S703.57,820,727,820A42.67,42.67,0,0,0,769.62,777.39Z" style="fill: #38003c"/>
      <path d="M836.76,777.75V696.53H879v81.22c0,37.54,17.32,42.59,35.73,42.59A36.52,36.52,0,0,0,940,809.51c5.78-5.41,12.63-15.52,12.63-31.76V696.17h42.24V858.6H952.62v-5.77a82.23,82.23,0,0,1-37.9,9.74C867.08,862.57,836.76,832.61,836.76,777.75Z" style="fill: #38003c"/>
      <path d="M1027.7,858.6V696.17H1058l11.91,8.3c12.63-7.58,26.71-11.91,40.43-11.91,22.38,0,43,8.66,57.75,24.55L1137.43,746a37,37,0,0,0-27.07-11.19c-18,0-40.43,19.5-40.43,42.6V858.6Z" style="fill: #38003c"/>
      <path d="M1233.08,777.39c0-46.93,38.26-84.83,85.19-84.83a84.73,84.73,0,0,1,84.82,84.83c0,46.92-37.9,85.18-84.82,85.18A85.34,85.34,0,0,1,1233.08,777.39Zm127.78,0A42.59,42.59,0,1,0,1318.27,820,42.68,42.68,0,0,0,1360.86,777.39Z" style="fill: #38003c"/>
      <path d="M1535.21,858.6V777.39c0-21.3-13-42.6-38.27-42.6-18.4,0-40.78,19.5-40.78,42.6V858.6h-42.24V696.17h30.32l11.92,8.3c12.63-7.58,26.71-11.91,40.78-11.91,45.85,0,80.5,37.18,80.5,84.83V858.6Z" style="fill: #38003c"/>
      <path d="M1716.05,858.6l-41.15-53.06-40.79,53.06h-53.78l67.86-87.35-58.12-75.08h53.43L1674.9,737l31.76-40.79h53.43L1702,771.25l67.86,87.35Z" style="fill: #38003c"/>
      <rect x="1173.89" y="696.17" width="42.59" height="162.43" style="fill: #38003c"/>
      <path d="M1195.54,630.84a26.89,26.89,0,1,0,26.72,26.71A26.88,26.88,0,0,0,1195.54,630.84Z" style="fill: #38003c"/>
    </g>
  </g>
</svg>
